<?xml version="1.0" encoding="UTF-8"?>
<svg width="16px" height="16px" viewBox="0 0 16 16" version="1.1" xmlns="http://www.w3.org/2000/svg" xmlns:xlink="http://www.w3.org/1999/xlink">
    <!-- Generator: Sketch 46.2 (44496) - http://www.bohemiancoding.com/sketch -->
    <title>steps</title>
    <desc>Created with Sketch.</desc>
    <defs></defs>
    <g id="Page-1" stroke="none" stroke-width="1" fill="none" fill-rule="evenodd">
        <g id="1" transform="translate(-162.000000, -32.000000)" fill-rule="nonzero" fill="#4A90E2">
            <g id="steps" transform="translate(162.000000, 32.000000)">
                <path d="M1.80000007,10.8000001 L1.80000007,14.1999999 L5.19999993,14.1999999 L5.19999993,10.8000001 L1.80000007,10.8000001 Z M0,9 L7,9 L7,16 L1.80000007,16 C0.805887482,16 -3.2234553e-16,15.1941125 -4.4408921e-16,14.1999999 L0,9 Z" id="Rectangle-4-Copy-3"></path>
                <path d="M10.8000001,10.8000001 L10.8000001,14.1999999 L14.1999999,14.1999999 L14.1999999,10.8000001 L10.8000001,10.8000001 Z M9,9 L16,9 L16,14.1999999 C16,15.1941125 15.1941125,16 14.1999999,16 L9,16 L9,9 Z" id="Rectangle-4-Copy-2"></path>
                <path d="M1.80000007,5.19999993 L5.19999993,5.19999993 L5.19999993,1.80000007 L1.80000007,1.80000007 L1.80000007,5.19999993 Z M1.80000007,0 L7,0 L7,7 L0,7 L0,1.80000007 C-1.2174368e-16,0.805887482 0.805887482,-2.6147369e-16 1.80000007,0 Z" id="Rectangle-4"></path>
            </g>
        </g>
    </g>
</svg>